<svg id="visual" viewBox="0 0 900 600" width="900" height="600" xmlns="http://www.w3.org/2000/svg" xmlns:xlink="http://www.w3.org/1999/xlink" version="1.1"><rect x="0" y="0" width="900" height="600" fill="#000000"></rect><path d="M0 27L45 27L45 30L90 30L90 27L135 27L135 31L180 31L180 29L225 29L225 26L270 26L270 30L315 30L315 30L360 30L360 26L405 26L405 27L450 27L450 29L495 29L495 26L540 26L540 28L585 28L585 31L630 31L630 29L675 29L675 28L720 28L720 28L765 28L765 29L810 29L810 27L855 27L855 29L900 29L900 31L900 0L900 0L855 0L855 0L810 0L810 0L765 0L765 0L720 0L720 0L675 0L675 0L630 0L630 0L585 0L585 0L540 0L540 0L495 0L495 0L450 0L450 0L405 0L405 0L360 0L360 0L315 0L315 0L270 0L270 0L225 0L225 0L180 0L180 0L135 0L135 0L90 0L90 0L45 0L45 0L0 0Z" fill="#ea7132"></path></svg>