<svg id="visual" viewBox="0 0 900 600" width="900" height="600" xmlns="http://www.w3.org/2000/svg"
     xmlns:xlink="http://www.w3.org/1999/xlink" version="1.1">
    <rect x="0" y="0" width="900" height="600" fill="#000000"></rect>
    <path d="M0 577L69 577L69 567L138 567L138 567L208 567L208 569L277 569L277 561L346 561L346 569L415 569L415 572L485 572L485 562L554 562L554 574L623 574L623 578L692 578L692 563L762 563L762 563L831 563L831 560L900 560L900 578L900 601L900 601L831 601L831 601L762 601L762 601L692 601L692 601L623 601L623 601L554 601L554 601L485 601L485 601L415 601L415 601L346 601L346 601L277 601L277 601L208 601L208 601L138 601L138 601L69 601L69 601L0 601Z"
          fill="#ea7132"></path>
</svg>
